<?xml version="1.0" encoding="UTF-8" standalone="no"?>
<!-- Created with Inkscape (http://www.inkscape.org/) -->

<svg
   xmlns:dc="http://purl.org/dc/elements/1.1/"
   xmlns:cc="http://creativecommons.org/ns#"
   xmlns:rdf="http://www.w3.org/1999/02/22-rdf-syntax-ns#"
   xmlns:svg="http://www.w3.org/2000/svg"
   xmlns="http://www.w3.org/2000/svg"
   xmlns:xlink="http://www.w3.org/1999/xlink"
   xmlns:sodipodi="http://sodipodi.sourceforge.net/DTD/sodipodi-0.dtd"
   xmlns:inkscape="http://www.inkscape.org/namespaces/inkscape"
   width="91.234222mm"
   height="67.37986mm"
   viewBox="0 0 91.234222 67.37986"
   version="1.1"
   id="svg8"
   inkscape:version="0.92.4 (5da689c313, 2019-01-14)"
   sodipodi:docname="logo.svg">
  <defs
     id="defs2">
    <linearGradient
       inkscape:collect="always"
       id="linearGradient6263">
      <stop
         style="stop-color:#fbc30c;stop-opacity:1;"
         offset="0"
         id="stop6259" />
      <stop
         style="stop-color:#f05a28;stop-opacity:1"
         offset="1"
         id="stop6261" />
    </linearGradient>
    <linearGradient
       inkscape:collect="always"
       xlink:href="#linearGradient6263"
       id="linearGradient6265"
       x1="77.728096"
       y1="241.4153"
       x2="78.037231"
       y2="170.32159"
       gradientUnits="userSpaceOnUse" />
  </defs>
  <sodipodi:namedview
     id="base"
     pagecolor="#ffffff"
     bordercolor="#666666"
     borderopacity="1.0"
     inkscape:pageopacity="0.0"
     inkscape:pageshadow="2"
     inkscape:zoom="1.4142136"
     inkscape:cx="99.107857"
     inkscape:cy="126.68263"
     inkscape:document-units="mm"
     inkscape:current-layer="layer1"
     showgrid="false"
     inkscape:window-width="1680"
     inkscape:window-height="987"
     inkscape:window-x="1912"
     inkscape:window-y="21"
     inkscape:window-maximized="1" />
  <metadata
     id="metadata5">
    <rdf:RDF>
      <cc:Work
         rdf:about="">
        <dc:format>image/svg+xml</dc:format>
        <dc:type
           rdf:resource="http://purl.org/dc/dcmitype/StillImage" />
        <dc:title></dc:title>
      </cc:Work>
    </rdf:RDF>
  </metadata>
  <g
     inkscape:label="Layer 1"
     inkscape:groupmode="layer"
     id="layer1"
     transform="translate(-29.085045,-173.30105)">
    <path
       id="path3773"
       style="fill:url(#linearGradient6265);fill-opacity:1;stroke:none;stroke-width:2.31119871;stroke-linejoin:bevel;stroke-miterlimit:4;stroke-dasharray:none;stroke-opacity:1"
       d="m 104.10721,195.2442 c 0.19537,0.19634 0.29274,0.42041 0.29212,0.67222 l -0.0333,13.42982 c -5.9e-4,0.25182 -0.0991,0.47541 -0.29544,0.67077 -0.18232,0.18143 -0.40638,0.27179 -0.67217,0.27115 -0.26581,-6.3e-4 -0.48941,-0.0922 -0.67082,-0.27447 l -4.01897,-4.03893 -13.873223,13.80469 c -0.182314,0.18141 -0.406369,0.27179 -0.672166,0.27113 -0.265799,-6.3e-4 -0.489405,-0.0922 -0.670815,-0.27446 l -4.018973,-4.03892 c -0.181412,-0.18232 -0.271791,-0.40637 -0.271133,-0.67217 6.56e-4,-0.2658 0.09215,-0.4894 0.274457,-0.67082 l 13.873222,-13.80468 -4.018973,-4.03893 c -0.195367,-0.19633 -0.292739,-0.42041 -0.292115,-0.67222 6.24e-4,-0.2518 0.0991,-0.47539 0.295439,-0.67076 0.168294,-0.16746 0.406353,-0.26479 0.714184,-0.29202 l 13.387876,0.0332 c 0.2518,5.9e-4 0.47539,0.0991 0.67075,0.29544 z m -51.649948,-21.94315 -14.87351,28.60187 v 28.60187 h 55.244172 l -2.868557,-15.01562 -4.933032,4.90513 c -0.208791,0.2076 -0.465183,0.31133 -0.769464,0.31057 -0.304284,-7.2e-4 -0.560234,-0.10548 -0.767911,-0.31419 l -4.600752,-4.62349 c -0.207679,-0.20871 -0.31133,-0.4657 -0.310576,-0.76998 7.52e-4,-0.30428 0.105397,-0.5603 0.314193,-0.76791 l 9.098669,-9.04699 -3.661791,-19.16938 -12.748578,15.88999 z m -23.372217,3.1688 0.0057,64.21106 67.986546,-0.001 v -3.81941 l -63.742878,-5.1e-4 v -60.39011 z m 77.403025,-0.52762 c -2.49728,0 -4.80834,0.20694 -6.933425,0.62115 -2.125085,0.41421 -3.805946,0.97577 -5.042585,1.68414 -1.236633,0.70836 -1.855184,1.47635 -1.855184,2.30476 v 2.30529 c 0,0.82843 0.618551,1.59693 1.855184,2.30528 1.236639,0.70837 2.9175,1.26993 5.042585,1.68414 2.125085,0.41421 4.436145,0.62115 6.933425,0.62115 2.49728,0 4.80886,-0.20694 6.93395,-0.62115 2.12508,-0.41421 3.80595,-0.97577 5.04258,-1.68414 1.23663,-0.70835 1.85467,-1.47685 1.85467,-2.30528 v -2.30529 c 0,-0.82841 -0.61804,-1.5964 -1.85467,-2.30476 -1.23663,-0.70837 -2.9175,-1.26993 -5.04258,-1.68414 -2.12509,-0.41421 -4.43667,-0.62115 -6.93395,-0.62115 z M 92.656876,186.7116 v 3.06183 c 0,0.82842 0.618551,1.59641 1.855184,2.30476 1.236639,0.70837 2.9175,1.26993 5.042585,1.68414 0.641705,0.12508 1.302525,0.22895 1.978175,0.31626 l 2.67115,0.007 c 0.25356,5.9e-4 0.48063,0.0932 0.6842,0.26717 0.52507,0.0195 1.05726,0.031 1.5999,0.031 2.49728,0 4.80886,-0.20694 6.93395,-0.62115 2.12508,-0.41421 3.80595,-0.97577 5.04258,-1.68414 1.23663,-0.70835 1.85467,-1.47634 1.85467,-2.30476 v -3.06183 c -1.42873,1.00852 -3.37961,1.77093 -5.85287,2.2872 -2.47327,0.51626 -5.13287,0.77463 -7.97833,0.77463 -2.84545,0 -5.50454,-0.25837 -7.977804,-0.77463 -2.473275,-0.51627 -4.424656,-1.27868 -5.85339,-2.2872 z m 0,6.91585 v 0.42892 l 0.674894,0.002 c -0.235109,-0.13887 -0.462804,-0.28127 -0.674894,-0.43099 z m 27.662394,0 c -1.42873,1.00852 -3.37961,1.77043 -5.85287,2.28669 -2.47327,0.51626 -5.13287,0.77463 -7.97833,0.77463 -0.39913,0 -0.79365,-0.006 -1.18546,-0.0165 l -0.0114,4.6085 c 0.3947,0.0109 0.79236,0.0186 1.19682,0.0186 2.49728,0 4.80886,-0.20746 6.93395,-0.62167 2.12508,-0.41421 3.80595,-0.97525 5.04258,-1.68362 1.23663,-0.70836 1.85467,-1.47686 1.85467,-2.30528 z m 0,6.91534 c -1.42873,1.00852 -3.37961,1.77093 -5.85287,2.2872 -2.47327,0.51626 -5.13287,0.77412 -7.97833,0.77412 -0.40495,0 -0.80509,-0.007 -1.20251,-0.0171 l -0.0119,4.60851 c 0.40043,0.0112 0.8039,0.0191 1.21439,0.0191 2.49728,0 4.80886,-0.20694 6.93395,-0.62115 2.12508,-0.41422 3.80595,-0.97578 5.04258,-1.68414 1.23663,-0.70836 1.85467,-1.47685 1.85467,-2.30528 z m -21.527884,6.165 -0.588595,0.5855 c 0.429691,0.10699 0.877985,0.20787 1.351854,0.30024 0.04753,0.009 0.09646,0.0168 0.144177,0.0258 z"
       inkscape:connector-curvature="0" />
  </g>
</svg>
